<svg xmlns="http://www.w3.org/2000/svg" version="1.1" xmlns:xlink="http://www.w3.org/1999/xlink" xmlns:svgjs="http://svgjs.com/svgjs" width="512" height="512" x="0" y="0" viewBox="0 0 59 60" style="enable-background:new 0 0 512 512" xml:space="preserve" class=""><g><g id="014---Astronaut" fill="none"><path id="Shape" d="m42 31-2 11-12 1-.37-13c1-.36 1.61-.2 4.44.08.3081435.0075728.6025606-.1273825.7979604-.3657702.1953997-.2383877.2699447-.5535661.2020396-.8542298l-.68-3c-.2586016-1.0373776-.0911546-2.135107.4649719-3.0482064.5561264-.9130995 1.4546435-1.5655681 2.4950281-1.8117936 1.0152168-.2280491 2.0794885-.0387773 2.9538298.5253138.8743413.5640912 1.4854753 1.4557263 1.6961702 2.4746862l1.5 6.69z" fill="#ecf0f1" data-original="#ecf0f1" class=""></path><path id="Shape" d="m41.21 35.36-1.21 6.64-12 1-.37-13c.594779-.2010709 1.2285375-.2593082 1.85-.17l2.8 8.5c8.29-2.92 7.95-2.86 8.93-2.97z" fill="#bdc3c7" data-original="#bdc3c7" class=""></path><path id="Shape" d="m50.43 49.36c.3165228.0216012.6245178-.1082762.83-.35l7.51-9.17c.1724034-.201559.2576705-.463353.2370412-.7277834-.0206293-.2644303-.145465-.5098333-.3470412-.6822166l-1.49-1.29c-.7854101-.6807704-1.8137743-1.0130961-2.849042-.9206951-1.0352678.0924009-1.9885239.6015926-2.640958 1.4106951l-3.68 4.46z" fill="#2c3e50" data-original="#2c3e50"></path><path id="Shape" d="m40.55 26.39c-7.66 1.82-7.48 1.8-7.58 1.8l-.43-2c7.77-1.84 7.48-1.79 7.58-1.79z" fill="#bdc3c7" data-original="#bdc3c7" class=""></path><path id="Shape" d="m48 42.09 3.64-4.46-6-5.14c-1.5707995-1.3739511-3.6358159-2.044541-5.7141456-1.8556019-2.0783298.1889391-3.9885674 1.2209157-5.2858544 2.8556019l-4.28 5.22z" fill="#bdc3c7" data-original="#bdc3c7" class=""></path><path id="Shape" d="m24.84 24.59-10.54 3.55c-4.8113594.8826101-9.52706148-1.9553851-11-6.62-1.6-4.89-2.12-6-2.12-8.3-.00342385-4.64381552 2.90979277-8.78954686 7.28-10.36l3.68-1.28c2.712403-.9195084 5.6810875-.70560328 8.2336479.59326595s4.4730042 3.57279489 5.3263521 6.30673405l2.8 8.52c1.0606899 3.1051677-.5698069 6.4864439-3.66 7.59z" fill="#bdc3c7" data-original="#bdc3c7" class=""></path><path id="Shape" d="m28.61 17.38c-.1717346 2.364526-1.7196604 4.4062206-3.95 5.21l-10.54 3.55c-4.8113594.8826101-9.52706148-1.9553851-11-6.62-.77519001-2.0582495-1.42307931-4.1622199-1.94-6.3-.00342385-4.64381552 2.90979277-8.78954686 7.28-10.36l3.68-1.28c2.712403-.9195084 5.6810875-.70560328 8.2336479.59326595s4.4730042 3.57279489 5.3263521 6.30673405c2.42 7.36 2.85 8.64 2.91 8.9z" fill="#ecf0f1" data-original="#ecf0f1" class=""></path><path id="Shape" d="m28.81 19c-.1 0 0 0-5.22 1.81-1.4849073.4943055-3.1064364.3686532-4.4974671-.3485088-1.3910307-.7171619-2.4339124-1.9651774-2.8925329-3.4614912l-1.56-4.73c-.3526012-1.0379044.1959552-2.1662358 1.23-2.53l9-3.14c.325121.58622713.5930245 1.20240524.8 1.84 3.04 9.21 3.16 9.22 3.14 10.56z" fill="#f29c1f" data-original="#f29c1f"></path><path id="Shape" d="m11.28 20.69c-1.2630613.0018565-2.386165-.8032358-2.79-2l-.62-1.9c-.52614497-1.5539282.29353835-3.2422977 1.84-3.79l.92-.31c.5024753-.1287908 1.020009.1480083 1.1918316.6374421.1718225.4894338-.0591169 1.0289947-.5318316 1.2425579l-.92.32c-.51898654.1879533-.78753807.7608633-.6 1.28l.62 1.83c.0711154.2430555.2382747.4465985.4628658.5636124.2245911.1170138.4871884.1373776.7271342.0563876l.92-.32c.5148261-.1561534 1.0609297.1229887 1.2358935.6317297.1749639.508741-.0839246 1.0647323-.5858935 1.2582703-.5877464.2789828-1.22145.4484223-1.87.5z" fill="#bdc3c7" data-original="#bdc3c7" class=""></path><path id="Shape" d="m14.28 28.25-10.63 3.69c-2.06012874.7357041-3.14712661 2.9898882-2.44 5.06l3.73 11.36c.31121107.9933654 1.00948809 1.8194698 1.93715197 2.2917692.92766388.4722995 2.00648322.5509642 2.99284803.2182308l3.68-1.28z" fill="#547580" data-original="#547580" class=""></path><path id="Shape" d="m50.46 49.45-9.22 3.19-1.24-3.78c-.155661-.4979648-.5053319-.9122439-.9700822-1.149323s-1.005403-.2769732-1.4999178-.110677l-14.74 5.11c-3.388498 1.1520758-7.1233586-.1924741-9-3.24-.71-1.13-.6-1.07-3.94-11.24-1.34921653-3.9836557.5873999-8.3356027 4.45-10l10.5-3.63c.2545134-.0882454.5338649-.0700766.7748036.0503928.2409387.1204693.4230847.3330492.5051964.5896072l4 12.25c.1685085.5070708.5329175.9256274 1.0119648 1.1623332.4790473.2367057 1.0328944.2718755 1.5380352.0976668 7.15-2.48 5.11-1.72 5.45-1.89 3.7627998-1.2671494 7.873667.5224394 9.51 4.14.32.6.16.19 2.87 8.45z" fill="#ecf0f1" data-original="#ecf0f1" class=""></path><path id="Shape" d="m56 53.85-.62-1.85c-.3087198-.9924479-1.005587-1.8179142-1.9321823-2.2887452-.9265954-.4708309-2.0041914-.5470228-2.9878177-.2112548l-9.22 3.19 1.87 5.68c.1756063.5050912.7175029.782648 1.23.63l11.06-3.89c.5084519-.1879541.7745681-.7467983.6-1.26z" fill="#35495e" data-original="#35495e" class=""></path><path id="Shape" d="m48.28 42.82c-2.62.91-3.25 1.23-4.33 1.23-2.1160851-.0226432-3.9806351-1.3958863-4.63-3.41-.58-1.77-1.23-3.67-1.23-3.77.6454075-.2235423 1.3182614-.3581131 2-.4l1.13 3.53c.226817.741017.7436607 1.358816 1.4329919 1.7128987.6893313.3540827 1.4925564.4143519 2.2270081.1671013l2.71-.88c.2748477.5887025.5054851 1.1970505.69 1.82z" fill="#95a5a5" data-original="#95a5a5" class=""></path><g fill="#f0c419"><path id="Shape" d="m38 6c-.5522847 0-1-.44771525-1-1v-4c0-.55228475.4477153-1 1-1s1 .44771525 1 1v4c0 .55228475-.4477153 1-1 1z" fill="#f0c419" data-original="#f0c419" class=""></path><path id="Shape" d="m40 4h-4c-.5522847 0-1-.44771525-1-1s.4477153-1 1-1h4c.5522847 0 1 .44771525 1 1s-.4477153 1-1 1z" fill="#f0c419" data-original="#f0c419" class=""></path><path id="Shape" d="m52 26c-.5522847 0-1-.4477153-1-1v-4c0-.5522847.4477153-1 1-1s1 .4477153 1 1v4c0 .5522847-.4477153 1-1 1z" fill="#f0c419" data-original="#f0c419" class=""></path><path id="Shape" d="m54 24h-4c-.5522847 0-1-.4477153-1-1s.4477153-1 1-1h4c.5522847 0 1 .4477153 1 1s-.4477153 1-1 1z" fill="#f0c419" data-original="#f0c419" class=""></path><path id="Shape" d="m3 60c-.55228475 0-1-.4477153-1-1v-4c0-.5522847.44771525-1 1-1s1 .4477153 1 1v4c0 .5522847-.44771525 1-1 1z" fill="#f0c419" data-original="#f0c419" class=""></path><path id="Shape" d="m5 58h-4c-.55228475 0-1-.4477153-1-1s.44771525-1 1-1h4c.55228475 0 1 .4477153 1 1s-.44771525 1-1 1z" fill="#f0c419" data-original="#f0c419" class=""></path></g><path id="Shape" d="m31 43.13c-.3638032.9754248-1.1071215 1.7619401-2.0604635 2.1802048s-2.0354337.4326209-2.9995365.0397952l-8.35-3.45c-1.3411251-.5723413-2.264555-1.8291255-2.41-3.28l-1-9.15c-.2362155-2.160344 1.2956739-4.114058 3.45-4.4 1.0519525-.1259071 2.1100746.1793505 2.9333154.8462321.8232409.6668816 1.3414899 1.6385928 1.4366846 2.6937679l.7 6.78 6.16 2.54c2.0168759.8549296 2.9708936 3.1731037 2.14 5.2z" fill="#bdc3c7" data-original="#bdc3c7" class=""></path><path id="Shape" d="m28.09 37.63c0 .1-.81 1.7-3.46 7.19l-1.84-.76c0-.1.8-1.68 3.46-7.19z" fill="#95a5a5" data-original="#95a5a5" class=""></path><path id="Shape" d="m23.5 35.73c-.14.27-.08.18-2.95 2.1-.4550261.2440793-1.0210631.101585-1.306288-.3288453s-.1958368-1.0072424.206288-1.3311547c2.77-1.85 2.77-1.9 3.09-1.92l.12 1.14z" fill="#95a5a5" data-original="#95a5a5" class=""></path><path id="Shape" d="m28.81 19c-.1 0 0 0-5.22 1.81-2.4370106.8271267-5.1270066-.0627354-6.59-2.18 3.9673798-1.6756209 7.2396124-4.6619302 9.27-8.46 2.43 7.44 2.56 7.51 2.54 8.83z" fill="#e57e25" data-original="#e57e25"></path><path id="Shape" d="m19.26 14.87c-.3426686-.0009687-.6609793-.1773272-.8435047-.4673397-.1825253-.2900125-.2038448-.6532886-.0564953-.9626603l.64-1.27c.1163297-.2390365.3230506-.4219154.5744883-.5082298.2514376-.0863144.5268955-.0689596.7655117.0482298.4586138.2513962.6460533.8137147.43 1.29l-.61 1.27c-.1566131.3589924-.5083866.5935081-.9.6z" fill="#f3d55b" data-original="#f3d55b" class=""></path><path id="Shape" d="m21.43 18.34c-.3426686-.0009687-.6609793-.1773272-.8435047-.4673397-.1825253-.2900125-.2038448-.6532886-.0564953-.9626603l1.83-3.8c.1491777-.3319233.4668917-.5566068.8295547-.5866508.362663-.0300439.7130189.1392947.9147829.4421451s.2230824.6913995.0556624 1.0145057l-1.83 3.79c-.1654027.3472838-.5153406.5689111-.9.57z" fill="#f3d55b" data-original="#f3d55b" class=""></path></g></g></svg>