<svg xmlns="http://www.w3.org/2000/svg" version="1.1" xmlns:xlink="http://www.w3.org/1999/xlink" xmlns:svgjs="http://svgjs.com/svgjs" width="512" height="512" x="0" y="0" viewBox="0 0 128 128" style="enable-background:new 0 0 512 512" xml:space="preserve" class=""><g transform="matrix(-1,0,0,1,128.0634365081787,0)"><path d="m114.553 103.874a36.781 36.781 0 0 0 -6.25-13.86 57.175 57.175 0 0 0 -12.46-12.52 82.329 82.329 0 0 0 -6.99-4.71 82.613 82.613 0 0 1 -37.05 5.96c-.08 0-.16-.01-.25-.01a28.605 28.605 0 0 1 -14.27-4.86c-3.01 2.61-5.75 5.24-8.21 7.82-9.43 9.87-14.83 18.97-15.52 22.93-.87 5.01 1.46 7.43 6.09 11.32 4.43 3.72 13.24 6.57 23.97 8.04 14.2 1.96 31.78 1.52 47.05-2.461a75.986 75.986 0 0 0 12.95-4.559c3.33-1.54 12.287-6.49 10.94-13.09z" fill="#dceaf9" data-original="#dceaf9" class=""></path><path d="m114.553 103.874c1.35 6.6-7.63 11.559-10.96 13.1a75.973 75.973 0 0 1 -12.942 4.553c-.17-.57-6.16-21.584 4.55-24.564 8.3-2.3 9.726-4.011 13.04-6.93l.047-.04a36.924 36.924 0 0 1 6.265 13.881z" fill="#524b70" data-original="#524b70" class=""></path><path d="m95.811 77.492-.24.32c-10.43 9.53-30.59 12.788-46.671 10.888 1.16-4.57 2.23-8.21 2.87-9.96a82.613 82.613 0 0 0 37.05-5.96 82.329 82.329 0 0 1 6.991 4.712z" fill="#a3bfe2" data-original="#a3bfe2" class=""></path><path d="m51.521 78.732c.09 0 .17.01.25.01-.64 1.75-1.71 5.39-2.87 9.96-8.37-.99-15.64-3.37-19.86-7.01 2.46-2.58 5.2-5.21 8.21-7.82a28.605 28.605 0 0 0 14.27 4.86z" fill="#a3bfe2" data-original="#a3bfe2" class=""></path><path d="m57.942 90.772c-12.308 0-23.856-2.762-29.879-7.942a1.5 1.5 0 0 1 1.956-2.275c11.981 10.307 49.343 10.026 64.545-3.849a1.5 1.5 0 1 1 2.022 2.216c-8.854 8.078-24.268 11.85-38.644 11.85z" fill="#ffffff" data-original="#ffffff"></path><path d="m53.18 79.26c-.65 1.77-1.67 5.25-2.77 9.59-2.68 10.58-5.85 26.31-5.34 35.05a.822.822 0 0 1 -.02.27c-.49-.06-.98-.12-1.47-.19-.51-.07-1.01-.14-1.51-.22-.45-9.1 2.63-24.57 5.33-35.25 1.17-4.63 2.26-8.35 2.97-10.28a1.5 1.5 0 1 1 2.81 1.03z" fill="#a3bfe2" data-original="#a3bfe2" class=""></path><path d="m101.793 47.784c-2.116 11.932-6.627 18.645-12.976 25a82.727 82.727 0 0 1 -37.042 5.96l-.252-.014a28.8 28.8 0 0 1 -25-18.242 44.989 44.989 0 0 1 -3.141-21c2.633-25.167 19.618-37.998 41.026-36.488 26.292 1.865 41.802 19.873 37.385 44.784z" fill="#dceaf9" data-original="#dceaf9" class=""></path><path d="m107.351 46.009c-.695 6.635-3.7 11.759-7.879 11.321s-5.9-6.056-5.2-12.691 3.537-11.777 7.72-11.339 6.054 6.073 5.359 12.709z" fill="#a3bfe2" data-original="#a3bfe2" class=""></path><path d="m88.681 38.5a16.11 16.11 0 0 1 -.489 10.254c-5.586 14.562-17.592 22.846-36.26 21.546-19.08-1.328-28.88-11.836-28.552-30.818.229-13.27 9.544-28 30.178-28.093 19.953-.089 31.978 15.568 35.123 27.111z" fill="#524b70" data-original="#524b70" class=""></path><g fill="#fff"><path d="m83.56 42.537a1.5 1.5 0 0 1 -1.482-1.283l-.02-.13a16.685 16.685 0 0 0 -.308-1.72 1.5 1.5 0 0 1 2.9-.768 18.7 18.7 0 0 1 .376 2.052l.019.131a1.5 1.5 0 0 1 -1.266 1.7 1.477 1.477 0 0 1 -.219.018z" fill="#ffffff" data-original="#ffffff"></path><path d="m81.327 34.775a1.5 1.5 0 0 1 -1.464-1.175 9.268 9.268 0 0 0 -3.438-5.471 1.5 1.5 0 1 1 1.877-2.34 12.267 12.267 0 0 1 4.491 7.164 1.5 1.5 0 0 1 -1.466 1.824z" fill="#ffffff" data-original="#ffffff"></path></g></g></svg>