<svg xmlns="http://www.w3.org/2000/svg" version="1.1" xmlns:xlink="http://www.w3.org/1999/xlink" xmlns:svgjs="http://svgjs.com/svgjs" width="512" height="512" x="0" y="0" viewBox="0 0 500 500" style="enable-background:new 0 0 512 512" xml:space="preserve" class=""><g><linearGradient id="linear-gradient" gradientUnits="userSpaceOnUse" x1="158.08" x2="351.355" y1="90.945" y2="424.542"><stop offset=".031" stop-color="#fec4d6"></stop><stop offset=".455" stop-color="#fd8bae"></stop><stop offset=".488" stop-color="#fb8aad"></stop><stop offset=".507" stop-color="#f287a9"></stop><stop offset=".523" stop-color="#e482a3"></stop><stop offset=".536" stop-color="#d07b99"></stop><stop offset=".549" stop-color="#b6728e"></stop><stop offset=".56" stop-color="#96667f"></stop><stop offset=".571" stop-color="#70586e"></stop><stop offset=".582" stop-color="#444959"></stop><stop offset=".591" stop-color="#143743"></stop><stop offset=".595" stop-color="#00303a"></stop><stop offset=".627" stop-color="#2a3143"></stop><stop offset=".716" stop-color="#99325c"></stop><stop offset=".777" stop-color="#e0336b"></stop><stop offset=".805" stop-color="#fb3371"></stop></linearGradient><linearGradient id="linear-gradient-2" gradientUnits="userSpaceOnUse" x1="62.65" x2="495.841" y1="369.494" y2="107.514"><stop offset=".065" stop-color="#94d2bd"></stop><stop offset=".445" stop-color="#0a9396"></stop><stop offset=".856" stop-color="#005f73"></stop></linearGradient><circle cx="249.002" cy="247.879" fill="url(#linear-gradient)" r="165.775" data-original="url(#linear-gradient)"></circle><path d="m410.037 208.345c-29.93 30.39-75.079 64.53-128.73 95.5-14.729 8.5-29.339 16.33-43.64 23.43-31.469 15.64-61.459 27.77-87.9 35.89q-7.98 2.46-15.51 4.41c-42.71 11.1-73.791 10.11-82.86-5.61s5.6-43.13 36.569-74.57a164.458 164.458 0 0 0 12.49 34.06c1.54 3.13 3.21 6.24 4.98 9.31s3.631 6.07 5.571 8.98a134.192 134.192 0 0 0 13.06-3.31c26.27-7.87 66.58-25.91 111.7-50.45 8.709-4.74 17.61-9.73 26.62-14.93 64.24-37.09 116.07-74.72 135.169-96.74q-2.324-4.71-4.989-9.32t-5.567-8.98a164.9 164.9 0 0 0 -23.25-27.83c42.711-11.11 73.79-10.11 82.86 5.61s-5.602 43.12-36.573 74.55z" fill="url(#linear-gradient-2)" data-original="url(#linear-gradient-2)"></path><path d="m157.733 176.807a6 6 0 0 1 -2.253-11.269q1.835-.978 3.646-1.955a6 6 0 1 1 5.7 10.56q-1.838.992-3.7 1.986a5.975 5.975 0 0 1 -3.393.678z" fill="#fd85aa" data-original="#fd85aa"></path><path d="m286.423 135.284a6 6 0 0 1 -2.252-11.268q1.834-.978 3.646-1.955a6 6 0 1 1 5.7 10.559q-1.838.993-3.7 1.986a5.964 5.964 0 0 1 -3.394.678z" fill="#fd85aa" data-original="#fd85aa"></path><path d="m142.056 237.1a6 6 0 0 1 -2.253-11.269q1.835-.978 3.646-1.955a6 6 0 1 1 5.7 10.559q-1.837.993-3.7 1.986a5.973 5.973 0 0 1 -3.393.679z" fill="#fd85aa" data-original="#fd85aa"></path><g fill="#005f73"><path d="m120.127 398.645c-66.313 13.155-87.264-12.853-93.193-24.645a6 6 0 1 0 -10.721 5.388c5.857 11.653 23.433 34.874 70.338 34.874a185.015 185.015 0 0 0 35.912-3.843 6 6 0 0 0 -2.336-11.771z" fill="#005f73" data-original="#005f73"></path><path d="m480.677 114.333c-10.182-20.224-36.106-32.78-67.717-32.78a6 6 0 0 0 0 12c32.412 0 50.727 13.584 57.06 26.3.05.1.1.2.157.3l.066.115a6 6 0 0 0 10.434-5.926z" fill="#005f73" data-original="#005f73"></path><path d="m489.493 131.311a6 6 0 0 0 -11.943 1.166c.127 1.307.2 2.657.226 4.01a6 6 0 0 0 6 5.9h.1a6 6 0 0 0 5.9-6.1c-.03-1.673-.124-3.347-.283-4.976z" fill="#005f73" data-original="#005f73"></path><path d="m15.905 360.522a6 6 0 0 0 5.669-6.313c-.074-1.383-.093-2.8-.056-4.215a6 6 0 0 0 -12-.313c-.045 1.732-.021 3.472.07 5.171a6 6 0 0 0 5.986 5.678c.112 0 .226-.002.331-.008z" fill="#005f73" data-original="#005f73"></path></g><path d="m230.462 368.59-4.187 2.734c-6.695 4.373-.134 14.42 6.562 10.047l4.186-2.734c6.696-4.372.134-14.42-6.561-10.047z" fill="#922850" data-original="#922850"></path><path d="m343.515 345.793-4.186 2.734c-6.7 4.373-.134 14.42 6.561 10.047l4.186-2.734c6.696-4.372.135-14.42-6.561-10.047z" fill="#922850" data-original="#922850"></path><path d="m359.866 309.812-4.187 2.734c-6.695 4.373-.134 14.42 6.562 10.048l4.186-2.735c6.696-4.372.134-14.419-6.561-10.047z" fill="#922850" data-original="#922850"></path><path d="m397.551 174.311c6.492-7.491 9.208-13.182 7.333-16.431s-8.162-3.742-17.9-1.864q2.906 4.374 5.58 8.975c1.778 3.074 3.43 6.184 4.987 9.32z" fill="#00303a" data-original="#00303a" class=""></path><path d="m100.454 321.447c-6.493 7.49-9.209 13.181-7.333 16.43s8.162 3.742 17.9 1.864c-1.937-2.916-3.805-5.9-5.579-8.975s-3.431-6.184-4.988-9.319z" fill="#0a9396" data-original="#0a9396"></path><path d="m222.158 199.186c19.943-9.852 70.261-37.305 95.335-54.655a6 6 0 1 1 6.828 9.867c-25.548 17.679-76.63 45.559-96.848 55.547a6 6 0 0 1 -5.315-10.759z" fill="#fc5c8d" data-original="#fc5c8d"></path><path d="m127.178 307.3a5.966 5.966 0 0 0 2.093-.379c61.388-22.86 162.764-81.9 198.542-109.036a6 6 0 1 0 -7.251-9.561c-35.361 26.815-137 85.577-195.479 107.352a6 6 0 0 0 2.095 11.624z" fill="#fc5c8d" data-original="#fc5c8d"></path><path d="m198.075 211.285 4.482-2.218c7.167-3.547 12.489 7.209 5.322 10.755l-4.479 2.218c-7.17 3.547-12.492-7.208-5.325-10.755z" fill="#fc5c8d" data-original="#fc5c8d"></path></g></svg>